<svg width="173" height="194" viewBox="0 0 173 194" fill="none" xmlns="http://www.w3.org/2000/svg">
<g clip-path="url(#clip0_4_3)">
<path opacity="0.997" d="M162.725 0H10.1316C4.53606 0 0 4.65987 0 10.4081V183.401C0 189.15 4.53606 193.81 10.1316 193.81H162.725C168.321 193.81 172.857 189.15 172.857 183.401V10.4081C172.857 4.65987 168.321 0 162.725 0Z" fill="#242458"/>
<path d="M86.4294 10.6043C81.3936 10.6902 74.6755 12.1882 70.4477 15.0804C64.9321 18.8578 61.0752 24.6795 59.4908 31.6182L58.7112 35.0357L55.2961 35.3292C50.2587 35.7734 46.3955 37.2924 42.1961 40.4797C37.397 44.1209 33.3144 50.8343 32.2191 56.8846L31.7031 59.7363L29.3959 60.3443C18.6109 63.1846 10.8892 71.4625 9.21634 81.9759C8.46515 86.6969 8.57404 86.8622 12.4294 86.8622H15.6267L15.9486 84.4596C16.4426 80.7649 19.0181 75.9532 21.9992 73.155C29.9403 65.6991 41.8615 66.1093 49.0499 74.0856C51.7895 77.1253 53.2493 79.9575 54.1283 83.9392L54.7216 86.6255L59.6407 86.7601L64.5581 86.8947V110.785V160.473H48.4091H32.2602L32.3975 163.668L32.5332 166.864H52.1162H71.6992L71.8175 107.137L71.9359 73.2101L73.6592 71.8159C74.6076 71.0491 75.8165 70.2838 76.3452 70.1152L77.3062 69.8072L77.6108 104.251L77.917 152.78V166.864H81.1427H84.3684L84.7866 59.036C84.7866 53.2953 78.8639 42.1641 67.8943 36.9179C65.6407 35.9922 65.5587 35.6015 66.8322 31.8014C68.5871 26.5601 72.2452 22.4585 77.4009 19.9521C79.9102 18.7735 80.6503 18.2985 86.4294 18.2985C92.2085 18.2985 92.9471 18.7735 95.4563 19.9521C100.61 22.4568 104.269 26.5585 106.025 31.8014C107.297 35.6015 107.216 35.9906 104.963 36.9179C93.9934 42.1641 88.0691 53.2969 88.0691 59.036L88.4873 166.864H91.713H94.9387V152.78L95.2448 104.251L95.5494 69.8072L96.5105 70.1152C97.0391 70.2838 98.248 71.0491 99.1964 71.8159L100.92 73.2101L101.038 107.137L101.155 166.864H120.739H140.327L140.463 163.668L140.599 160.473H124.45H108.302V110.783V86.893L113.22 86.7585L118.139 86.6239L118.732 83.9376C119.611 79.9559 121.071 77.1237 123.809 74.0839C130.997 66.1093 142.918 65.6991 150.86 73.1534C153.839 75.9516 156.416 80.7649 156.91 84.458L157.232 86.8606H160.429C164.283 86.8606 164.392 86.6936 163.641 81.9743C161.97 71.4608 154.248 63.183 143.463 60.3427L141.156 59.7347L140.64 56.883C139.544 50.8327 135.462 44.1193 130.663 40.4781C126.463 37.2908 122.6 35.7718 117.563 35.3275L114.148 35.0341L113.368 31.6166C111.784 24.6779 107.925 18.8562 102.41 15.0788C98.1817 12.1865 91.4652 10.6886 86.4294 10.6026V10.6043ZM57.9363 42.9812C60.9079 42.9537 63.9174 43.6702 66.8369 45.1326C71.9564 47.6973 76.8218 54.3377 77.1169 59.1624C77.2258 60.9344 77.1674 61.0073 74.8964 61.9703C69.1899 64.3908 64.5171 68.8037 61.7711 74.3595C60.9426 76.0359 60.1993 77.3377 60.1189 77.255C60.0384 77.1723 59.2919 75.7943 58.4618 74.1926C54.9 67.3235 48.8494 62.4972 41.1261 60.367C39.1376 59.819 39.125 59.8012 39.4359 58.1022C40.2991 53.3764 44.4985 47.9016 49.2645 45.2931C52.0309 43.7789 54.9647 43.0072 57.9363 42.9796V42.9812ZM114.921 42.9812C117.893 43.0088 120.826 43.7805 123.593 45.2947C128.357 47.9032 132.558 53.378 133.421 58.1038C133.732 59.8028 133.72 59.8206 131.731 60.3686C124.008 62.4988 117.956 67.3252 114.395 74.1942C113.565 75.7943 112.82 77.1723 112.738 77.2566C112.656 77.3409 111.913 76.0375 111.084 74.3612C108.339 68.8053 103.666 64.3924 97.9592 61.972C95.6899 61.009 95.6315 60.936 95.7403 59.164C96.0355 54.3393 100.901 47.6973 106.02 45.1342C108.94 43.6719 111.949 42.9553 114.921 42.9828V42.9812Z" fill="#FFF114"/>
<g opacity="0.995">
<path d="M38.4369 175.135C38.4369 174.544 38.2843 174.122 37.9792 173.869C37.6783 173.617 37.2554 173.491 36.7104 173.491H34.5547V176.84H36.7104C37.2565 176.84 37.6794 176.704 37.9792 176.432C38.2843 176.16 38.4369 175.727 38.4369 175.135ZM40.7283 175.119C40.7283 176.461 40.398 177.41 39.7373 177.966C39.0766 178.521 38.1328 178.799 36.9061 178.799H34.5547V182.889H32.2554V171.515H37.0781C38.1902 171.515 39.0766 171.808 39.7373 172.395C40.398 172.982 40.7283 173.89 40.7283 175.119ZM50.6516 173.53H44.792V175.946H50.1703V177.922H44.792V180.846H50.9215V182.891H42.5306V171.516H50.65L50.6516 173.53ZM52.6874 171.516H55.113L59.5223 179.457V171.516H61.678V182.891H59.3645L54.8431 174.811V182.891H52.6874V171.516ZM71.2777 175.065C71.102 174.288 70.6738 173.746 69.9931 173.438C69.6123 173.268 69.1894 173.183 68.7243 173.183C67.8332 173.183 67.0994 173.53 66.5228 174.225C65.9516 174.915 65.6659 175.954 65.6659 177.343C65.6659 178.743 65.9763 179.733 66.597 180.315C67.2177 180.896 67.9237 181.187 68.7149 181.187C69.4913 181.187 70.1273 180.958 70.6228 180.499C71.1183 180.037 71.424 179.432 71.5397 178.685H68.98V176.787H73.5929V182.891H72.0605L71.8269 181.471C71.3808 182.011 70.98 182.391 70.6244 182.612C70.0131 182.998 69.2619 183.191 68.3708 183.191C66.9032 183.191 65.7012 182.669 64.7648 181.625C63.7885 180.575 63.3003 179.14 63.3003 177.319C63.3003 175.477 63.7937 174.001 64.7806 172.89C65.7674 171.778 67.072 171.223 68.6943 171.223C70.102 171.223 71.2314 171.591 72.0826 172.327C72.939 173.058 73.4298 173.971 73.555 175.067L71.2777 175.065Z" fill="#FFF114"/>
<path d="M78.8275 178.591H81.6365L80.2541 174.115L78.8275 178.591ZM78.9695 171.515H81.5829L85.5045 182.889H82.9953L82.282 180.551H78.2025L77.4356 182.889H75.0163L78.9695 171.515Z" fill="#FFF114"/>
<path d="M91.8155 171.516H94.4367L90.7329 178.616V182.891H88.4193V178.616L84.5876 171.516H87.3147L89.614 176.471L91.8155 171.516ZM100.656 181.192C101.573 181.192 102.298 180.844 102.834 180.149C103.375 179.454 103.645 178.467 103.645 177.186C103.645 175.91 103.375 174.925 102.834 174.23C102.298 173.531 101.573 173.181 100.656 173.181C99.7398 173.181 99.0086 173.529 98.4625 174.224C97.9165 174.919 97.6435 175.907 97.6435 177.187C97.6435 178.468 97.9165 179.456 98.4625 180.151C99.0086 180.846 99.7398 181.193 100.656 181.193V181.192ZM105.959 177.187C105.959 179.23 105.401 180.794 104.284 181.879C103.448 182.764 102.238 183.207 100.656 183.207C99.0738 183.207 97.8644 182.764 97.028 181.879C95.9065 180.794 95.3457 179.23 95.3457 177.187C95.3457 175.104 95.9065 173.54 97.028 172.496C97.8644 171.61 99.0738 171.168 100.656 171.168C102.238 171.168 103.448 171.61 104.284 172.496C105.401 173.54 105.959 175.104 105.959 177.187ZM115.064 171.516H118.393V182.891H116.237V175.197C116.237 174.975 116.24 174.666 116.245 174.271C116.25 173.87 116.253 173.561 116.253 173.345L114.157 182.891H111.911L109.831 173.345C109.831 173.561 109.834 173.87 109.839 174.271C109.845 174.668 109.847 174.976 109.847 175.197V182.891H107.691V171.516H111.056L113.07 180.461L115.064 171.516Z" fill="#FFF114"/>
<path d="M123.567 178.591H126.376L124.994 174.115L123.567 178.591ZM123.709 171.515H126.323L130.244 182.889H127.735L127.022 180.551H122.942L122.175 182.889H119.756L123.709 171.515Z" fill="#FFF114"/>
<path d="M131.613 171.516H134.038L138.447 179.457V171.516H140.603V182.891H138.29L133.768 174.811V182.891H131.613V171.516Z" fill="#FFF114"/>
</g>
</g>
<defs>
<clipPath id="clip0_4_3">
<rect width="172.857" height="193.81" fill="white"/>
</clipPath>
</defs>
</svg>
